<?xml version="1.0" encoding="utf-8"?>
<!-- Generator: Adobe Illustrator 16.0.0, SVG Export Plug-In . SVG Version: 6.00 Build 0)  -->
<!DOCTYPE svg PUBLIC "-//W3C//DTD SVG 1.1//EN" "http://www.w3.org/Graphics/SVG/1.1/DTD/svg11.dtd">
<svg version="1.1" id="chestie" xmlns="http://www.w3.org/2000/svg" xmlns:xlink="http://www.w3.org/1999/xlink" x="0px" y="0px"
	 width="345px" height="221.918px" viewBox="0 0 345 221.918" enable-background="new 0 0 345 221.918" xml:space="preserve">
<g>
	<path d="M345,34.921l0.037,20.937C345.423,49.149,345.429,42.18,345,34.921z"/>
	<path d="M55,221.918c0,0,6.434,0.227,17.373,0H55z"/>
	<path d="M312.25,221.918h33.08l-0.058-32.415C336.756,201.501,325.945,212.625,312.25,221.918z"/>
	<path d="M345.227,163.169l-0.189-107.312C336.441,205.15,133.635,220.65,72.373,221.918h201.333
		C300.298,209.912,326.197,191.458,345.227,163.169z"/>
</g>
<path d="M345.33,23.585c0,0,14.67,179.534-319.997,198.434C-309.333,240.918,7,221.918,7,221.918S323.926,203.99,345,0"/>
<circle fill="#FFFFFF" stroke="#000000" stroke-width="4" stroke-miterlimit="10" cx="292.666" cy="170.918" r="25.333"/>
<circle fill="#FFFFFF" stroke="#000000" stroke-width="4" stroke-miterlimit="10" cx="317.009" cy="85.262" r="15.144"/>
<circle fill="#FFFFFF" stroke="#000000" stroke-width="4" stroke-miterlimit="10" cx="244.853" cy="202.336" r="15.773"/>
<circle fill="#FFFFFF" stroke="#000000" stroke-width="4" stroke-miterlimit="10" cx="186.395" cy="188.67" r="11.564"/>
<circle fill="#FFFFFF" stroke="#000000" stroke-width="4" stroke-miterlimit="10" cx="105.056" cy="205.711" r="7.565"/>
<circle fill="#FFFFFF" stroke="#000000" stroke-width="4" stroke-miterlimit="10" cx="333.108" cy="177.104" r="7.565"/>
</svg>
